<?xml version="1.0" standalone="no"?>
<!DOCTYPE svg PUBLIC "-//W3C//DTD SVG 20010904//EN"
 "http://www.w3.org/TR/2001/REC-SVG-20010904/DTD/svg10.dtd">
<svg version="1.0" xmlns="http://www.w3.org/2000/svg"
 width="385.000000pt" height="367.000000pt" viewBox="0 0 385.000000 367.000000"
 preserveAspectRatio="xMidYMid meet">

<g transform="translate(0.000000,367.000000) scale(0.100000,-0.100000)"
fill="#ffffff" stroke="none">
<path d="M1941 3471 c-1 -31 -8 -52 -26 -73 -31 -36 -32 -61 -3 -90 18 -18 19
-23 7 -32 -139 -106 -269 -220 -265 -233 3 -8 6 -17 6 -19 0 -2 7 -4 15 -4 13
0 15 -23 15 -148 l0 -149 -80 5 -80 5 0 -102 c0 -116 14 -103 -135 -121 -510
-61 -1004 -283 -1327 -599 l-68 -65 0 -228 c0 -126 2 -228 5 -228 2 0 60 45
127 101 151 124 264 199 377 251 315 146 669 120 877 -65 157 -141 200 -334
98 -447 -33 -36 -59 -49 -125 -64 -24 -5 -29 -1 -42 33 -17 42 -56 78 -94 87
-43 11 -112 -6 -155 -39 -61 -47 -87 -105 -88 -197 0 -168 101 -309 292 -405
80 -40 192 -75 203 -63 3 3 16 129 29 282 18 210 27 280 38 289 29 23 56 73
73 131 22 75 14 169 -20 244 -28 60 -29 18 15 536 26 295 26 328 0 351 -11 10
-20 22 -20 27 0 4 162 8 361 8 l360 0 -24 -32 -24 -33 18 -290 c29 -480 59
-928 74 -1135 8 -107 15 -201 15 -207 0 -8 14 -13 38 -13 54 -1 194 -33 287
-68 44 -16 166 -68 272 -116 219 -99 180 -96 383 -31 137 44 280 73 403 81
l97 7 0 602 0 601 -97 95 c-313 304 -722 502 -1227 594 -77 14 -143 25 -148
25 -4 0 -8 45 -8 100 l0 100 -80 0 -80 0 0 146 c0 137 1 146 20 151 11 3 20 9
20 13 0 10 -111 108 -211 186 l-77 60 19 23 c24 30 24 52 -1 84 -11 14 -20 38
-21 54 0 15 -4 37 -9 48 -7 15 -9 10 -9 -24z m-141 -566 l0 -115 -40 0 -40 0
0 115 0 115 40 0 40 0 0 -115z m138 -2 l3 -113 -56 0 -55 0 0 116 0 115 53 -3
52 -3 3 -112z m132 2 l0 -115 -50 0 -50 0 0 115 0 115 50 0 50 0 0 -115z m108
-2 l3 -113 -41 0 -40 0 0 116 0 115 38 -3 37 -3 3 -112z m-491 -218 c2 -6 -23
-9 -67 -7 -42 2 -68 8 -64 13 8 13 126 7 131 -6z m653 0 c0 -12 -14 -15 -65
-15 -51 0 -65 3 -65 15 0 12 14 15 65 15 51 0 65 -3 65 -15z m-650 -33 c3 -2
-1 -7 -8 -9 -9 -4 -10 -9 -3 -17 8 -10 -4 -12 -54 -12 -36 1 -65 4 -65 9 0 4
10 8 23 8 l22 2 -22 4 c-23 4 -29 14 -17 26 6 6 116 -3 124 -11z m650 -2 c0
-6 -28 -10 -65 -10 -37 0 -65 4 -65 10 0 6 28 10 65 10 37 0 65 -4 65 -10z m0
-36 c0 -11 -5 -14 -16 -10 -9 3 -38 6 -65 6 -73 0 -59 17 16 19 54 1 65 -1 65
-15z m-655 -39 c0 -5 -28 -11 -62 -13 -35 -2 -63 -1 -63 2 0 25 14 31 68 26
31 -3 57 -9 57 -15z m658 0 c-2 -5 -32 -11 -68 -13 -60 -3 -76 3 -58 22 11 11
128 2 126 -9z"/>
<path d="M2001 2234 c-18 -23 -21 -41 -21 -130 l0 -104 70 0 70 0 0 98 c0 79
-4 103 -20 130 -26 42 -69 44 -99 6z"/>
<path d="M635 1540 c-163 -25 -311 -92 -518 -233 l-117 -80 0 -273 0 -273 72
-62 c81 -70 173 -131 266 -178 34 -17 62 -33 62 -36 0 -8 -143 46 -210 80 -36
18 -93 54 -127 79 l-63 46 0 -133 0 -134 73 -16 c141 -31 249 -40 417 -34 184
6 312 27 480 80 106 34 360 138 360 147 0 3 -21 14 -47 23 -285 106 -458 380
-388 615 33 110 142 202 240 202 25 0 45 3 45 8 0 4 -18 26 -41 49 -45 47
-118 87 -200 109 -69 18 -227 26 -304 14z m45 -222 c-80 -116 -78 -298 7 -462
49 -95 172 -218 282 -282 45 -26 79 -49 77 -51 -9 -9 -182 68 -234 103 -167
116 -260 284 -250 455 4 65 11 91 42 153 30 61 82 126 102 126 2 0 -10 -19
-26 -42z m-355 -160 c0 -122 2 -139 29 -208 75 -196 219 -351 424 -454 30 -15
52 -30 49 -32 -8 -9 -129 36 -212 79 -207 106 -357 342 -343 541 3 46 44 206
52 206 1 0 1 -60 1 -132z"/>
<path d="M2005 634 c-179 -32 -352 -91 -675 -229 -290 -123 -484 -181 -695
-206 -100 -12 -421 -8 -460 6 -16 5 -17 4 -4 -4 25 -16 227 -69 319 -83 112
-17 495 -17 620 1 101 14 405 81 505 112 147 44 379 98 477 109 127 15 340 8
443 -14 91 -20 226 -58 222 -62 -2 -2 -51 3 -108 11 -202 29 -446 14 -676 -40
-180 -43 -520 -160 -408 -140 17 3 127 14 245 26 266 26 586 22 825 -11 339
-46 491 -60 670 -60 177 0 365 17 482 43 l58 14 3 79 3 79 -128 2 c-272 4
-463 57 -889 246 -230 101 -388 137 -603 136 -80 0 -182 -7 -226 -15z"/>
<path d="M3710 524 c-78 -6 -161 -23 -299 -61 -149 -42 -150 -37 14 -74 61
-14 144 -22 258 -26 l168 -6 -3 84 -3 84 -45 1 c-25 1 -65 -1 -90 -2z"/>
</g>
</svg>
