<?xml version="1.0" encoding="UTF-8" standalone="no"?>
<svg
   fill="none"
   height="26"
   viewBox="0 0 27 26"
   width="27"
   version="1.1"
   id="svg12"
   sodipodi:docname="TypeScript.svg"
   inkscape:version="1.2 (dc2aedaf03, 2022-05-15)"
   xmlns:inkscape="http://www.inkscape.org/namespaces/inkscape"
   xmlns:sodipodi="http://sodipodi.sourceforge.net/DTD/sodipodi-0.dtd"
   xmlns="http://www.w3.org/2000/svg"
   xmlns:svg="http://www.w3.org/2000/svg">
  <defs
     id="defs16">
    <linearGradient
       id="linearGradient3212"
       inkscape:swatch="solid">
      <stop
         style="stop-color:#000000;stop-opacity:1;"
         offset="0"
         id="stop3210" />
    </linearGradient>
  </defs>
  <sodipodi:namedview
     id="namedview14"
     pagecolor="#ffffff"
     bordercolor="#000000"
     borderopacity="0.25"
     inkscape:showpageshadow="2"
     inkscape:pageopacity="0.0"
     inkscape:pagecheckerboard="0"
     inkscape:deskcolor="#d1d1d1"
     showgrid="false"
     inkscape:zoom="19.884615"
     inkscape:cx="9.3288201"
     inkscape:cy="13.10058"
     inkscape:window-width="1350"
     inkscape:window-height="720"
     inkscape:window-x="0"
     inkscape:window-y="0"
     inkscape:window-maximized="0"
     inkscape:current-layer="svg12">
    <inkscape:grid
       type="xygrid"
       id="grid122" />
  </sodipodi:namedview>
  <path
     clip-rule="evenodd"
     d="M 0.96219213,9.5396518e-8 H 25.936769 C 26.495951,9.5396518e-8 26.949272,0.4365221 26.949272,0.9750001 V 25.024998 c 0,0.5385 -0.453321,0.975 -1.012503,0.975 H 0.96219213 c -0.55917859,0 -1.01248229,-0.4365 -1.01248229,-0.975 V 0.9750001 C -0.05029016,0.4365221 0.40301354,9.5396518e-8 0.96219213,9.5396518e-8 Z M 14.958593,13.832398 V 11.7 H 5.3496117 v 2.132398 h 3.430568 v 9.4946 h 2.7310163 v -9.4946 z m 1.088793,9.2439 c 0.440383,0.2162 0.961266,0.3784 1.562546,0.4865 0.601382,0.1081 1.235108,0.1622 1.901382,0.1622 0.649332,0 1.266116,-0.0595 1.850556,-0.1784 0.584338,-0.1189 1.096699,-0.3149 1.537083,-0.5879 0.440383,-0.273 0.789076,-0.6297 1.045975,-1.0703 0.256899,-0.4406 0.385349,-0.9852 0.385349,-1.6339 0,-0.4703 -0.07341,-0.8824 -0.220243,-1.2365 -0.146726,-0.3541 -0.358447,-0.669 -0.635163,-0.9447 -0.276614,-0.2757 -0.608365,-0.523 -0.995151,-0.7419 -0.386786,-0.2189 -0.822857,-0.4257 -1.308419,-0.6203 -0.355778,-0.1406 -0.674797,-0.2771 -0.957057,-0.4095 -0.282363,-0.1324 -0.52232,-0.2676 -0.719872,-0.4054 -0.197654,-0.1379 -0.350028,-0.2838 -0.457326,-0.4379 -0.107298,-0.154 -0.160895,-0.3284 -0.160895,-0.523 0,-0.1784 0.04795,-0.3392 0.143954,-0.4824 0.096,-0.1433 0.231435,-0.2663 0.4065,-0.369 0.175065,-0.1027 0.389558,-0.1824 0.643685,-0.2392 0.254024,-0.0567 0.536387,-0.0851 0.846884,-0.0851 0.225891,0 0.46441,0.0162 0.715662,0.0486 0.251252,0.0325 0.503941,0.0825 0.757966,0.15 0.254126,0.0676 0.501169,0.1527 0.741126,0.2555 0.239957,0.1027 0.461535,0.2216 0.664837,0.3567 V 12.146 C 23.384514,11.9946 22.934274,11.8824 22.445837,11.8095 21.957503,11.7365 21.397089,11.7 20.764698,11.7 c -0.643583,0 -1.253384,0.0662 -1.829302,0.1987 -0.575918,0.1324 -1.082632,0.3392 -1.520243,0.6203 -0.437612,0.281099 -0.78343,0.639199 -1.037454,1.074298 -0.254127,0.4352 -0.381139,0.9555 -0.381139,1.5609 0,0.7731 0.232873,1.4326 0.698721,1.9785 0.465848,0.546 1.172987,1.0082 2.121522,1.3866 0.37272,0.146 0.719872,0.2892 1.041766,0.4298 0.321791,0.1405 0.599842,0.2865 0.834152,0.4378 0.23431,0.1514 0.419232,0.3162 0.554767,0.4946 0.135534,0.1784 0.203301,0.3811 0.203301,0.6082 0,0.1676 -0.04241,0.323 -0.127115,0.4662 -0.08471,0.1433 -0.213158,0.2676 -0.385348,0.373 -0.17219,0.1054 -0.386684,0.1879 -0.643583,0.2473 -0.256899,0.0595 -0.557641,0.0892 -0.902022,0.0892 -0.587212,0 -1.168778,-0.0986 -1.744696,-0.2959 -0.575815,-0.1973 -1.10943,-0.4933 -1.600639,-0.8879 z"
     fill="#fff"
     fill-rule="evenodd"
     id="path10"
     style="mix-blend-mode:normal;fill:#0000ff;fill-opacity:1;stroke:none;stroke-width:1.013;stroke-dasharray:none;stroke-opacity:1" />
  <path
     style="fill:#ffffff;fill-opacity:0;stroke:none;stroke-width:0.0720456;stroke-dasharray:none;stroke-opacity:1"
     d="M 8.8545634,18.562579 V 13.833033 H 7.1476596 5.4407559 v -1.066815 -1.066815 h 4.7651061 4.765107 v 1.066815 1.066815 h -1.706904 -1.706904 v 4.729546 4.729546 H 10.205862 8.8545634 Z"
     id="path3779" />
  <path
     style="fill:#ffffff;fill-opacity:0;stroke:none;stroke-width:0.0720456;stroke-dasharray:none;stroke-opacity:1"
     d="M 8.8545634,18.562579 V 13.833033 H 7.1476596 5.4407559 v -1.066815 -1.066815 h 4.7651061 4.765107 v 1.066815 1.066815 h -1.706904 -1.706904 v 4.729546 4.729546 H 10.205862 8.8545634 Z"
     id="path3850" />
  <path
     style="fill:#ffffff;fill-opacity:0;stroke:#ffffff;stroke-width:0.0720456;stroke-dasharray:none;stroke-opacity:1"
     d="m 18.552343,23.644047 c -0.766435,-0.07169 -1.467553,-0.22422 -2.034493,-0.442599 l -0.408945,-0.157523 v -1.227199 c 0,-0.674959 0.01814,-1.227199 0.04031,-1.227199 0.02217,0 0.14448,0.07946 0.271802,0.176571 0.337424,0.257365 1.212986,0.64151 1.785962,0.783575 0.669917,0.1661 1.789567,0.170506 2.333917,0.0092 0.523821,-0.155237 0.891609,-0.481206 0.948774,-0.840895 0.136979,-0.861871 -0.384491,-1.335021 -2.358118,-2.139613 -1.50567,-0.613819 -2.338863,-1.251023 -2.758427,-2.109572 -0.217972,-0.446032 -0.228015,-0.504151 -0.228328,-1.32126 -3.14e-4,-0.820005 0.009,-0.873688 0.229742,-1.322285 0.67328,-1.368334 2.17172,-2.052993 4.505564,-2.058657 1.049288,-0.0025 1.656929,0.06288 2.465367,0.265461 l 0.444507,0.111385 v 1.161113 1.161113 L 23.345465,14.25765 c -1.012021,-0.473557 -2.571169,-0.648545 -3.450867,-0.387303 -0.660146,0.196042 -1.059318,0.673927 -0.990637,1.18598 0.07836,0.584227 0.544703,0.936083 2.166614,1.634715 1.275223,0.549298 1.775208,0.834904 2.280427,1.302647 0.785827,0.727538 1.116197,1.703592 0.947283,2.798683 -0.276364,1.791702 -1.734838,2.756872 -4.348847,2.877924 -0.410724,0.01902 -1.039416,0.0072 -1.397095,-0.02625 z"
     id="path3852" />
  <path
     style="fill:#ffffff;fill-opacity:0;stroke:#ffffff;stroke-width:0.0720456;stroke-dasharray:none;stroke-opacity:1"
     d="M 8.8545634,18.562579 V 13.833033 H 7.1476596 5.4407559 v -1.066815 -1.066815 h 4.7651061 4.765107 v 1.066815 1.066815 h -1.706904 -1.706904 v 4.729546 4.729546 H 10.205862 8.8545634 Z"
     id="path7212" />
  <path
     style="fill:#ffffff;fill-opacity:0;stroke:#ffffff;stroke-width:0.0720456;stroke-dasharray:none;stroke-opacity:1"
     d="M 18.527018,23.647969 C 17.816009,23.579245 17.08773,23.421105 16.51785,23.211693 l -0.408945,-0.150274 v -1.235946 c 0,-0.679771 0.01297,-1.235946 0.02882,-1.235946 0.01585,0 0.263886,0.145054 0.551188,0.322342 1.273103,0.785608 3.061058,0.999799 4.161293,0.49851 0.406144,-0.185048 0.578515,-0.393398 0.640263,-0.773908 0.121148,-0.746545 -0.380719,-1.197926 -2.19055,-1.97019 -0.562003,-0.23981 -1.193298,-0.533593 -1.402876,-0.652852 -0.612443,-0.348503 -1.255497,-0.9985 -1.520615,-1.537031 -0.222875,-0.452723 -0.231963,-0.504681 -0.231963,-1.326131 0,-0.81482 0.01071,-0.877565 0.228248,-1.336811 0.28258,-0.596569 0.760775,-1.075393 1.415969,-1.41783 0.915321,-0.478393 1.71524,-0.636571 3.201152,-0.633004 1.043048,0.0025 1.692973,0.07562 2.391192,0.268991 l 0.408946,0.11326 v 1.16557 1.16557 L 23.523268,14.341435 C 22.81009,13.981569 22.136,13.813793 21.261232,13.778433 c -1.263085,-0.05106 -1.971259,0.195582 -2.261482,0.787621 -0.176208,0.359456 -0.108422,0.691023 0.214306,1.048244 0.301903,0.334171 0.74117,0.591389 1.695516,0.99283 2.298202,0.96673 3.157646,1.756761 3.390908,3.117043 0.247686,1.44439 -0.40726,2.731027 -1.720493,3.3799 -0.922979,0.456048 -2.614023,0.682981 -4.052969,0.543898 z"
     id="path7214" />
  <path
     style="fill:#ffffff;fill-opacity:0;stroke:#ffffff;stroke-width:0.0720456;stroke-dasharray:none;stroke-opacity:1"
     d="M 8.8545634,18.562579 V 13.833033 H 7.1476596 5.4407559 v -1.066815 -1.066815 h 4.7651061 4.765107 v 1.066815 1.066815 h -1.706904 -1.706904 v 4.729546 4.729546 H 10.205862 8.8545634 Z"
     id="path7954" />
  <path
     style="fill:#ffffff;fill-opacity:0;stroke:#ffffff;stroke-width:0.0720456;stroke-dasharray:none;stroke-opacity:1"
     d="m 18.379622,23.642751 c -0.659445,-0.07001 -1.327739,-0.221396 -1.865338,-0.422537 l -0.405379,-0.151672 v -1.239508 c 0,-0.681728 0.01776,-1.239507 0.03946,-1.239507 0.0217,0 0.251442,0.127855 0.510536,0.284122 0.863299,0.52068 1.780007,0.780134 2.757134,0.780347 1.33354,2.85e-4 2.062508,-0.421766 2.062508,-1.194146 0,-0.662496 -0.403411,-0.988769 -2.230535,-1.804023 -0.679163,-0.303039 -1.386907,-0.64856 -1.572764,-0.767824 -0.465499,-0.29871 -1.082588,-0.962814 -1.326282,-1.42733 -0.1931,-0.368075 -0.203233,-0.433289 -0.203847,-1.311902 -6.12e-4,-0.876494 0.0098,-0.944913 0.200922,-1.315717 0.54546,-1.058473 1.476705,-1.676328 2.963316,-1.966077 1.068355,-0.208229 3.05101,-0.12032 4.187344,0.185663 l 0.293279,0.07897 v 1.170755 c 0,0.643915 -0.01707,1.170755 -0.03792,1.170755 -0.02086,0 -0.199952,-0.08211 -0.397985,-0.182457 -1.167112,-0.59142 -3.113671,-0.683308 -3.918454,-0.184972 -0.616061,0.381476 -0.665387,1.133332 -0.105878,1.613847 0.164815,0.141545 0.587704,0.395675 0.939753,0.564733 2.777313,1.333694 2.596491,1.230647 3.171846,1.807577 0.631608,0.633337 0.837787,1.076281 0.897762,1.928709 0.09549,1.35723 -0.521183,2.469672 -1.698501,3.063981 -1.019263,0.514522 -2.654596,0.72876 -4.260968,0.558211 z"
     id="path7956" />
  <path
     style="fill:#000000;fill-opacity:0;stroke:#ffffff;stroke-width:0.0720456;stroke-dasharray:none;stroke-opacity:1"
     d="m 18.206974,23.643748 c -0.465999,-0.06296 -1.460095,-0.317213 -1.902487,-0.486585 l -0.195582,-0.07488 v -1.246377 c 0,-0.685508 0.01842,-1.246378 0.04093,-1.246378 0.02251,0 0.259326,0.127549 0.526253,0.283443 1.051327,0.614008 2.415174,0.897877 3.448934,0.717856 0.928848,-0.161752 1.318276,-0.486832 1.317486,-1.099792 -9.4e-4,-0.730296 -0.276698,-0.94735 -2.488981,-1.959123 C 18.386221,18.272456 17.763778,17.951274 17.570322,17.818173 17.06801,17.472574 16.583965,16.9407 16.34806,16.47514 c -0.193,-0.380887 -0.203595,-0.449909 -0.203595,-1.326369 0,-0.878512 0.0104,-0.945832 0.208809,-1.351299 0.421815,-0.862029 1.360749,-1.551247 2.516438,-1.847176 1.112861,-0.284963 3.09023,-0.276454 4.351292,0.01872 l 0.533407,0.124855 0.0195,1.189623 c 0.01073,0.654293 0.0014,1.189624 -0.02061,1.189624 -0.02206,0 -0.158855,-0.0604 -0.303984,-0.13423 -0.796245,-0.405045 -2.152649,-0.633444 -3.033925,-0.510869 -0.909279,0.126469 -1.379224,0.460963 -1.443038,1.027116 -0.07306,0.64822 0.325985,0.992313 2.079463,1.793088 0.586749,0.267955 1.253441,0.592004 1.48154,0.720109 1.199015,0.673393 1.826774,1.667924 1.824742,2.890858 -0.0029,1.743467 -1.07021,2.878398 -3.092919,3.288862 -0.631641,0.128178 -2.406674,0.183719 -3.058202,0.09569 z"
     id="path7958"
     inkscape:highlight-color="#ffffff" />
  <path
     style="fill:#ffffff;fill-opacity:0;stroke:#ffffff;stroke-width:0.0720456;stroke-dasharray:none;stroke-opacity:1"
     d="M 8.8545634,18.562579 V 13.833033 H 7.1476596 5.4407559 v -1.066815 -1.066815 h 4.7651061 4.765107 v 1.066815 1.066815 h -1.706904 -1.706904 v 4.729546 4.729546 H 10.205862 8.8545634 Z"
     id="path7960" />
  <path
     style="fill:#ffffff;fill-opacity:0;stroke:#ffffff;stroke-width:0.0720456;stroke-dasharray:none;stroke-opacity:1"
     d="M 8.8545634,18.562579 V 13.833033 H 7.1476596 5.4407559 v -1.066815 -1.066815 h 4.7651061 4.765107 v 1.066815 1.066815 h -1.706904 -1.706904 v 4.729546 4.729546 H 10.205862 8.8545634 Z"
     id="path7962" />
  <path
     style="fill:#ffffff;fill-opacity:0;stroke:#ffffff;stroke-width:0.0720456;stroke-dasharray:none;stroke-opacity:1"
     d="m 8.8372909,18.580359 -0.018288,-4.711766 -1.6891235,-0.01907 -1.6891235,-0.01907 v -1.065527 -1.065528 h 4.7651061 4.765107 v 1.065528 1.065527 l -1.689124,0.01907 -1.689123,0.01907 -0.01829,4.711766 -0.01829,4.711766 h -1.35028 -1.3502832 z"
     id="path8707" />
  <path
     style="fill:#ffffff;fill-opacity:0;stroke:#ffffff;stroke-width:0.0720456;stroke-dasharray:none;stroke-opacity:1"
     d="m 8.8217764,18.61592 c -0.028793,-2.571913 -0.060822,-4.685164 -0.071176,-4.696112 -0.010354,-0.01095 -0.7593042,-0.04004 -1.6643346,-0.06465 L 5.440756,13.810418 V 12.75491 11.699402 h 4.765106 4.765107 v 1.055508 1.055508 l -1.64551,0.04474 c -0.905031,0.02461 -1.657298,0.05653 -1.671706,0.07094 -0.01441,0.01441 -0.04729,2.127659 -0.07307,4.696112 l -0.04687,4.669916 H 10.20397 8.8741276 Z"
     id="path9453" />
  <path
     style="fill:#ffffff;fill-opacity:0;stroke:#ffffff;stroke-width:0.0720456;stroke-dasharray:none;stroke-opacity:1"
     d="M 8.8301071,22.285123 C 8.8044416,21.692156 8.7834425,19.56386 8.7834425,17.555577 V 13.904154 L 7.8766498,13.90383 C 7.3779139,13.903653 6.6098071,13.88276 6.169746,13.857403 L 5.3696349,13.8113 v -1.055949 -1.055948 h 4.8362271 4.836228 v 1.055948 1.055949 l -0.800111,0.0461 c -0.440062,0.02536 -1.208168,0.04625 -1.706904,0.04643 l -0.906793,3.24e-4 v 2.691027 c 0,1.480065 -0.02115,3.60836 -0.04701,4.729546 l -0.04701,2.038519 H 10.205518 8.8767718 Z"
     id="path9455" />
  <path
     style="fill:#ffffff;fill-opacity:0;stroke:#ffffff;stroke-width:0.101888;stroke-dasharray:none;stroke-opacity:1"
     d="m 8.8706104,23.320643 c -0.03841,-0.03841 -0.069837,-2.166936 -0.069837,-4.730056 v -4.66022 l -0.729207,-5.23e-4 c -0.4010638,-2.81e-4 -1.1719639,-0.02984 -1.7131113,-0.06567 l -0.9839044,-0.06515 0.028392,-1.065855 0.028392,-1.065855 h 4.7775623 4.777563 l 0.02839,1.065855 0.02839,1.065855 -0.983904,0.06515 c -0.541148,0.03583 -1.3116,0.06539 -1.712117,0.06567 l -0.728213,5.2e-4 -0.02614,4.702128 -0.02614,4.702128 -1.313142,0.02793 C 9.5313562,23.37791 8.9090158,23.35905 8.8706055,23.32064 Z"
     id="path9457" />
  <path
     style="fill:#ffffff;fill-opacity:0;stroke:#ffffff;stroke-width:0.101888;stroke-dasharray:none;stroke-opacity:1"
     d="M 8.8007737,18.65764 V 13.930367 H 7.5575584 c -0.6837684,0 -1.4532074,-0.02878 -1.7098646,-0.06396 l -0.4666493,-0.06396 v -1.092712 -1.092712 h 4.8278525 4.827853 v 1.092712 1.092712 l -0.466649,0.06396 c -0.256657,0.03518 -1.026096,0.06396 -1.709864,0.06396 h -1.243216 v 4.727273 4.727273 H 10.208897 8.8007737 Z"
     id="path9459" />
  <path
     style="fill:#ffffff;fill-opacity:1;stroke:#ffffff;stroke-width:0.101888;stroke-dasharray:none;stroke-opacity:1"
     d="m 8.826913,18.682784 -0.02614,-4.702126 -1.659574,-0.05912 c -0.912766,-0.03252 -1.67089,-0.06646 -1.68472,-0.07543 -0.01383,-0.009 -0.02515,-0.514184 -0.02515,-1.122695 V 11.61703 h 4.827853 4.827853 v 1.106383 c 0,0.608511 -0.01131,1.113723 -0.02515,1.122695 -0.01383,0.009 -0.771953,0.04292 -1.684719,0.07543 l -1.659575,0.05912 -0.02614,4.702126 -0.02614,4.702128 H 10.259182 8.853048 Z"
     id="path9461" />
  <path
     style="fill:#2b0000;fill-opacity:0;stroke:#ffffff;stroke-width:0.0509439;stroke-dasharray:none;stroke-opacity:1"
     d="m 18.094584,23.654631 c -0.405642,-0.05826 -1.369826,-0.304609 -1.737717,-0.443987 l -0.289169,-0.109553 7.7e-4,-1.215923 c 4.24e-4,-0.668757 0.01956,-1.245548 0.04252,-1.281758 0.03226,-0.05087 0.11375,-0.02364 0.358524,0.119819 0.963964,0.564963 1.761404,0.817539 2.719131,0.861239 0.760662,0.03471 1.21077,-0.03114 1.642225,-0.24024 0.41732,-0.202252 0.534873,-0.373005 0.559738,-0.81306 0.02407,-0.42597 -0.03975,-0.586232 -0.338003,-0.848763 -0.226195,-0.199105 -1.237925,-0.726554 -2.495546,-1.301012 -0.773368,-0.35326 -1.229932,-0.659868 -1.664129,-1.117554 -0.606158,-0.63895 -0.82324,-1.199695 -0.82324,-2.126508 0,-0.967225 0.217,-1.504352 0.875727,-2.16763 0.34211,-0.344474 0.486322,-0.447674 0.932725,-0.667474 0.642842,-0.316522 1.280056,-0.483689 2.145904,-0.562958 0.659713,-0.0604 1.734882,-0.0352 2.405353,0.05636 0.48495,0.06623 1.29419,0.250029 1.370407,0.311254 0.09734,0.0782 0.09023,2.401819 -0.0074,2.401819 -0.03862,0 -0.236829,-0.07912 -0.440467,-0.175831 -0.474128,-0.225163 -1.207055,-0.410554 -1.894971,-0.479326 -0.912334,-0.09121 -1.758973,0.07099 -2.146461,0.411205 -0.216215,0.189839 -0.348316,0.528555 -0.311933,0.799815 0.07192,0.536168 0.501212,0.83716 2.509194,1.759264 1.031937,0.473886 1.501267,0.764286 1.947752,1.205183 0.418299,0.413063 0.699325,0.879301 0.836389,1.387615 0.10634,0.394374 0.106698,1.302504 6.74e-4,1.705228 -0.378255,1.436734 -1.551422,2.272128 -3.56416,2.537981 -0.467455,0.06174 -2.191458,0.05834 -2.633885,-0.0052 z"
     id="path14532"
     inkscape:transform-center-x="1.3583284"
     inkscape:transform-center-y="0.050007006" />
  <path
     style="fill:#ffffff;fill-opacity:1;stroke:#ffffff;stroke-width:0.0509439;stroke-dasharray:none;stroke-opacity:1"
     d="m 18.094584,23.654631 c -0.405642,-0.05826 -1.369826,-0.304609 -1.737717,-0.443987 l -0.289169,-0.109553 7.7e-4,-1.215923 c 4.24e-4,-0.668757 0.01956,-1.245548 0.04252,-1.281758 0.03226,-0.05087 0.11375,-0.02364 0.358524,0.119819 0.963964,0.564963 1.761404,0.817539 2.719131,0.861239 0.760662,0.03471 1.21077,-0.03114 1.642225,-0.24024 0.41732,-0.202252 0.534873,-0.373005 0.559738,-0.81306 0.02407,-0.42597 -0.03975,-0.586232 -0.338003,-0.848763 -0.226195,-0.199105 -1.237925,-0.726554 -2.495546,-1.301012 -0.773368,-0.35326 -1.229932,-0.659868 -1.664129,-1.117554 -0.606158,-0.63895 -0.82324,-1.199695 -0.82324,-2.126508 0,-0.967225 0.217,-1.504352 0.875727,-2.16763 0.34211,-0.344474 0.486322,-0.447674 0.932725,-0.667474 0.642842,-0.316522 1.280056,-0.483689 2.145904,-0.562958 0.659713,-0.0604 1.734882,-0.0352 2.405353,0.05636 0.48495,0.06623 1.29419,0.250029 1.370407,0.311254 0.09734,0.0782 0.09023,2.401819 -0.0074,2.401819 -0.03862,0 -0.236829,-0.07912 -0.440467,-0.175831 -0.474128,-0.225163 -1.207055,-0.410554 -1.894971,-0.479326 -0.912334,-0.09121 -1.758973,0.07099 -2.146461,0.411205 -0.216215,0.189839 -0.348316,0.528555 -0.311933,0.799815 0.07192,0.536168 0.501212,0.83716 2.509194,1.759264 1.031937,0.473886 1.501267,0.764286 1.947752,1.205183 0.418299,0.413063 0.699325,0.879301 0.836389,1.387615 0.10634,0.394374 0.106698,1.302504 6.74e-4,1.705228 -0.378255,1.436734 -1.551422,2.272128 -3.56416,2.537981 -0.467455,0.06174 -2.191458,0.05834 -2.633885,-0.0052 z"
     id="path14565"
     inkscape:transform-center-x="1.3583284"
     inkscape:transform-center-y="0.050007006" />
</svg>
